<svg xmlns="http://www.w3.org/2000/svg" viewBox="0 0 128 128" width="128" height="128">
  <defs>
    <linearGradient id="pfBg" x1="0" y1="0" x2="1" y2="1">
      <stop offset="0" stop-color="#4f46e5"/>
      <stop offset="1" stop-color="#8b5cf6"/>
    </linearGradient>
  </defs>
  <rect x="6" y="6" width="116" height="116" rx="28" fill="url(#pfBg)"/>
  <!-- desktop frame -->
  <rect x="20" y="28" width="68" height="46" rx="6" fill="#ffffff" opacity="0.96"/>
  <rect x="20" y="28" width="68" height="10" rx="6" fill="#c7d2fe"/>
  <circle cx="27" cy="33" r="1.8" fill="#6366f1"/>
  <circle cx="33" cy="33" r="1.8" fill="#6366f1" opacity="0.6"/>
  <rect x="24" y="43" width="30" height="27" rx="4" fill="#6366f1" opacity="0.24"/>
  <rect x="58" y="43" width="26" height="5" rx="2.5" fill="#4f46e5" opacity="0.5"/>
  <rect x="58" y="52" width="26" height="5" rx="2.5" fill="#4f46e5" opacity="0.3"/>
  <rect x="58" y="61" width="18" height="5" rx="2.5" fill="#4f46e5" opacity="0.3"/>
  <!-- phone frame -->
  <rect x="78" y="44" width="32" height="58" rx="9" fill="#1e1b4b" opacity="0.94"/>
  <rect x="82" y="50" width="24" height="46" rx="6" fill="#ffffff"/>
  <rect x="87" y="55" width="14" height="4" rx="2" fill="#8b5cf6" opacity="0.5"/>
  <rect x="86" y="63" width="16" height="16" rx="4" fill="#8b5cf6" opacity="0.3"/>
  <rect x="86" y="83" width="16" height="4" rx="2" fill="#8b5cf6" opacity="0.35"/>
  <rect x="90" y="91" width="8" height="3" rx="1.5" fill="#8b5cf6" opacity="0.25"/>
  <!-- cursor -->
  <path d="M62 74 L67.5 92 L73 84.5 L82 88 Z" fill="#ffffff" stroke="#312e81" stroke-width="2" stroke-linejoin="round"/>
</svg>
